<?xml version="1.0" encoding="utf-8"?>
<!-- Generated by IcoMoon.io -->
<!DOCTYPE svg PUBLIC "-//W3C//DTD SVG 1.1//EN" "http://www.w3.org/Graphics/SVG/1.1/DTD/svg11.dtd">
<svg version="1.1" xmlns="http://www.w3.org/2000/svg" xmlns:xlink="http://www.w3.org/1999/xlink" width="624" height="24" viewBox="0 0 624 24">
<svg id="icon-stay_primary_portrait" width="24" height="24" viewBox="0 0 24 24" x="0" y="0">
<path fill="#00f" d="M17.016 18.984v-13.969h-10.031v13.969h10.031zM17.016 1.031c1.078 0 1.969 0.891 1.969 1.969v18c0 1.078-0.891 2.016-1.969 2.016h-10.031c-1.078 0-1.969-0.938-1.969-2.016v-18c0-1.078 0.891-2.016 1.969-2.016z"></path>
</svg>
<svg id="icon-mail" width="24" height="24" viewBox="0 0 24 24" x="40" y="0">
<path fill="#00f" d="M4 3h16q1.242 0 2.121 0.879t0.879 2.121v12q0 1.242-0.879 2.121t-2.121 0.879h-16q-1.242 0-2.121-0.879t-0.879-2.121v-12q0-1.242 0.879-2.121t2.121-0.879zM21 18v-10.922l-8.375 6.703q-0.266 0.219-0.625 0.219t-0.625-0.219l-8.375-6.703v10.922q0 0.414 0.293 0.707t0.707 0.293h16q0.414 0 0.707-0.293t0.293-0.707zM20 5h-16q-0.148 0-0.328 0.055l8.328 6.664 8.328-6.664q-0.18-0.055-0.328-0.055z"></path>
</svg>
<svg id="icon-lock" width="24" height="24" viewBox="0 0 24 24" x="80" y="0">
<path fill="#00f" d="M12 1q1.633 0 3.012 0.805t2.184 2.184 0.805 3.012v4h2q1.242 0 2.121 0.879t0.879 2.121v6q0 1.242-0.879 2.121t-2.121 0.879h-16q-1.242 0-2.121-0.879t-0.879-2.121v-6q0-1.242 0.879-2.121t2.121-0.879h2v-4q0-1.633 0.805-3.012t2.184-2.184 3.012-0.805zM20 13h-16q-0.414 0-0.707 0.293t-0.293 0.707v6q0 0.414 0.293 0.707t0.707 0.293h16q0.414 0 0.707-0.293t0.293-0.707v-6q0-0.414-0.293-0.707t-0.707-0.293zM12 3q-1.656 0-2.828 1.172t-1.172 2.828v4h8v-4q0-1.656-1.172-2.828t-2.828-1.172z"></path>
</svg>
<svg id="icon-head" width="24" height="24" viewBox="0 0 24 24" x="120" y="0">
<path fill="#00f" d="M12 0q1.633 0 3.012 0.805t2.184 2.184 0.805 3.012v3q0 1.25-0.484 2.367t-1.352 1.945q2.281 0.359 4.055 1.059t2.777 1.652 1.004 2.008v1.969q0 1.242-0.879 2.121t-2.121 0.879h-18q-1.242 0-2.121-0.879t-0.879-2.121v-1.977q0-1.055 1.004-2.008t2.773-1.652 4.051-1.051q-0.859-0.836-1.344-1.949t-0.484-2.363v-3q0-1.633 0.805-3.012t2.184-2.184 3.012-0.805zM12 15q-2.172 0-4.191 0.348t-3.52 0.973q-0.602 0.25-1.074 0.531t-0.719 0.508-0.371 0.395-0.125 0.27v1.977q0 0.414 0.293 0.707t0.707 0.293h18q0.414 0 0.707-0.293t0.293-0.707v-1.969q0-0.102-0.125-0.27t-0.371-0.395-0.719-0.508-1.074-0.539q-1.5-0.625-3.52-0.973t-4.191-0.348zM12 2q-1.656 0-2.828 1.172t-1.172 2.828v3q0 1.656 1.172 2.828t2.828 1.172 2.828-1.172 1.172-2.828v-3q0-1.656-1.172-2.828t-2.828-1.172z"></path>
</svg>
<svg id="icon-cross" width="24" height="24" viewBox="0 0 24 24" x="160" y="0">
<path fill="#00f" d="M19 4q0.43 0 0.715 0.285t0.285 0.715q0 0.422-0.289 0.711l-6.297 6.289 6.297 6.289q0.289 0.289 0.289 0.711 0 0.43-0.285 0.715t-0.715 0.285q-0.422 0-0.711-0.289l-6.289-6.297-6.289 6.297q-0.289 0.289-0.711 0.289-0.43 0-0.715-0.285t-0.285-0.715q0-0.422 0.289-0.711l6.297-6.289-6.297-6.289q-0.289-0.289-0.289-0.711 0-0.43 0.285-0.715t0.715-0.285q0.422 0 0.711 0.289l6.289 6.297 6.289-6.297q0.289-0.289 0.711-0.289z"></path>
</svg>
</svg>
