<?xml version="1.0" encoding="utf-8"?>
<!-- Generated by IcoMoon.io -->
<!DOCTYPE svg PUBLIC "-//W3C//DTD SVG 1.1//EN" "http://www.w3.org/Graphics/SVG/1.1/DTD/svg11.dtd">
<svg version="1.1" xmlns="http://www.w3.org/2000/svg" xmlns:xlink="http://www.w3.org/1999/xlink" width="496" height="96" viewBox="0 0 496 96">
<svg id="icon-rotate_left" width="24" height="24" viewBox="0 0 24 24" x="0" y="0">
<path fill="#00f" d="M12.984 4.078c3.938 0.469 7.031 3.844 7.031 7.922s-3.094 7.453-7.031 7.922v-2.016c2.859-0.469 5.016-2.953 5.016-5.906s-2.156-5.438-5.016-5.906v3.891l-4.547-4.453 4.547-4.547v3.094zM7.078 18.328l1.453-1.453c0.75 0.563 1.594 0.891 2.484 1.031v2.016c-1.406-0.188-2.766-0.703-3.938-1.594zM6.094 12.984c0.141 0.891 0.469 1.734 0.984 2.484l-1.406 1.406c-0.891-1.172-1.406-2.484-1.594-3.891h2.016zM7.125 8.531c-0.516 0.75-0.891 1.594-1.031 2.484h-2.016c0.188-1.406 0.75-2.719 1.641-3.891z"></path>
</svg>
<svg id="icon-rotate_right" width="24" height="24" viewBox="0 0 24 24" x="40" y="0">
<path fill="#00f" d="M16.875 15.469c0.563-0.75 0.891-1.594 1.031-2.484h2.016c-0.188 1.406-0.703 2.719-1.594 3.891zM12.984 17.906c0.891-0.141 1.734-0.469 2.484-1.031l1.453 1.453c-1.172 0.891-2.531 1.406-3.938 1.594v-2.016zM19.922 11.016h-2.016c-0.141-0.891-0.469-1.734-1.031-2.484l1.453-1.406c0.891 1.172 1.406 2.484 1.594 3.891zM15.563 5.531l-4.547 4.453v-3.891c-2.859 0.469-5.016 2.953-5.016 5.906s2.156 5.438 5.016 5.906v2.016c-3.938-0.469-7.031-3.844-7.031-7.922s3.094-7.453 7.031-7.922v-3.094z"></path>
</svg>
<svg id="icon-stay_primary_portrait" width="24" height="24" viewBox="0 0 24 24" x="80" y="0">
<path fill="#00f" d="M17.016 18.984v-13.969h-10.031v13.969h10.031zM17.016 1.031c1.078 0 1.969 0.891 1.969 1.969v18c0 1.078-0.891 2.016-1.969 2.016h-10.031c-1.078 0-1.969-0.938-1.969-2.016v-18c0-1.078 0.891-2.016 1.969-2.016z"></path>
</svg>
<svg id="icon-mail" width="24" height="24" viewBox="0 0 24 24" x="120" y="0">
<path fill="#00f" d="M4 3h16q1.242 0 2.121 0.879t0.879 2.121v12q0 1.242-0.879 2.121t-2.121 0.879h-16q-1.242 0-2.121-0.879t-0.879-2.121v-12q0-1.242 0.879-2.121t2.121-0.879zM21 18v-10.922l-8.375 6.703q-0.266 0.219-0.625 0.219t-0.625-0.219l-8.375-6.703v10.922q0 0.414 0.293 0.707t0.707 0.293h16q0.414 0 0.707-0.293t0.293-0.707zM20 5h-16q-0.148 0-0.328 0.055l8.328 6.664 8.328-6.664q-0.18-0.055-0.328-0.055z"></path>
</svg>
<svg id="icon-lock" width="24" height="24" viewBox="0 0 24 24" x="160" y="0">
<path fill="#00f" d="M12 1q1.633 0 3.012 0.805t2.184 2.184 0.805 3.012v4h2q1.242 0 2.121 0.879t0.879 2.121v6q0 1.242-0.879 2.121t-2.121 0.879h-16q-1.242 0-2.121-0.879t-0.879-2.121v-6q0-1.242 0.879-2.121t2.121-0.879h2v-4q0-1.633 0.805-3.012t2.184-2.184 3.012-0.805zM20 13h-16q-0.414 0-0.707 0.293t-0.293 0.707v6q0 0.414 0.293 0.707t0.707 0.293h16q0.414 0 0.707-0.293t0.293-0.707v-6q0-0.414-0.293-0.707t-0.707-0.293zM12 3q-1.656 0-2.828 1.172t-1.172 2.828v4h8v-4q0-1.656-1.172-2.828t-2.828-1.172z"></path>
</svg>
<svg id="icon-cog" width="24" height="24" viewBox="0 0 24 24" x="200" y="0">
<path fill="#00f" d="M12 0q1.242 0 2.121 0.879t0.879 2.121v0.516q0.367 0.125 0.883 0.359l0.359-0.359q0.883-0.883 2.125-0.883 1.234 0 2.117 0.883t0.883 2.117q0 1.242-0.883 2.125l-0.359 0.359q0.234 0.516 0.359 0.883h0.516q1.242 0 2.121 0.879t0.879 2.121-0.879 2.121-2.121 0.879h-0.516q-0.125 0.367-0.359 0.883l0.359 0.359q0.883 0.883 0.883 2.125 0 1.234-0.883 2.117t-2.117 0.883q-1.242 0-2.125-0.883l-0.359-0.359q-0.516 0.234-0.883 0.359v0.516q0 1.242-0.879 2.121t-2.121 0.879-2.121-0.879-0.879-2.121v-0.516q-0.367-0.125-0.883-0.359l-0.359 0.359q-0.883 0.883-2.117 0.883-1.242 0-2.121-0.883t-0.879-2.117q0-1.25 0.875-2.125l0.359-0.359q-0.234-0.516-0.359-0.883h-0.516q-1.242 0-2.121-0.879t-0.879-2.121 0.879-2.121 2.121-0.879h0.516q0.125-0.367 0.359-0.883l-0.359-0.359q-0.875-0.875-0.875-2.125 0-1.234 0.879-2.117t2.121-0.883q1.234 0 2.117 0.883l0.359 0.359q0.516-0.234 0.883-0.359v-0.516q0-1.242 0.879-2.121t2.121-0.879zM12 2q-0.414 0-0.707 0.293t-0.293 0.707v2.070q-1.75 0.25-3.195 1.32l-1.461-1.461q-0.297-0.297-0.703-0.297-0.414 0-0.707 0.293t-0.293 0.707q0 0.422 0.289 0.711l1.461 1.461q-1.070 1.445-1.32 3.195h-2.070q-0.414 0-0.707 0.293t-0.293 0.707 0.293 0.707 0.707 0.293h2.070q0.25 1.75 1.32 3.195l-1.461 1.461q-0.289 0.289-0.289 0.711 0 0.414 0.293 0.707t0.707 0.293q0.406 0 0.703-0.297l1.461-1.461q1.445 1.070 3.195 1.32v2.070q0 0.414 0.293 0.707t0.707 0.293 0.707-0.293 0.293-0.707v-2.070q1.75-0.25 3.195-1.32l1.461 1.461q0.297 0.297 0.711 0.297t0.707-0.293 0.293-0.707-0.297-0.711l-1.461-1.461q1.070-1.445 1.32-3.195h2.070q0.414 0 0.707-0.293t0.293-0.707-0.293-0.707-0.707-0.293h-2.070q-0.25-1.75-1.32-3.195l1.461-1.461q0.297-0.297 0.297-0.711t-0.293-0.707-0.707-0.293-0.711 0.297l-1.461 1.461q-1.445-1.070-3.195-1.32v-2.070q0-0.414-0.293-0.707t-0.707-0.293zM12 8q1.656 0 2.828 1.172t1.172 2.828-1.172 2.828-2.828 1.172-2.828-1.172-1.172-2.828 1.172-2.828 2.828-1.172zM12 10q-0.828 0-1.414 0.586t-0.586 1.414 0.586 1.414 1.414 0.586 1.414-0.586 0.586-1.414-0.586-1.414-1.414-0.586z"></path>
</svg>
<svg id="icon-skip-back" width="24" height="24" viewBox="0 0 24 24" x="240" y="0">
<path fill="#00f" d="M17 4q0.414 0 0.707 0.293t0.293 0.707q0 0.422-0.289 0.711l-6.297 6.289 6.297 6.297q0.289 0.289 0.289 0.711 0 0.414-0.293 0.703t-0.707 0.289q-0.422 0-0.711-0.289l-7-7q-0.289-0.305-0.289-0.711 0-0.398 0.289-0.703l7-7q0.297-0.297 0.711-0.297zM6 4q0.414 0 0.707 0.293t0.293 0.707v14q0 0.414-0.293 0.707t-0.707 0.293-0.707-0.293-0.293-0.707v-14q0-0.414 0.293-0.707t0.707-0.293z"></path>
</svg>
<svg id="icon-rewind" width="24" height="24" viewBox="0 0 24 24" x="280" y="0">
<path fill="#00f" d="M18 4q0.414 0 0.707 0.293t0.293 0.707-0.297 0.711l-6.289 6.289 6.289 6.289q0.297 0.297 0.297 0.711t-0.293 0.707-0.707 0.293q-0.422 0-0.711-0.289l-7-7q-0.289-0.289-0.289-0.711t0.289-0.711l7-7q0.289-0.289 0.711-0.289zM12 4q0.414 0 0.707 0.293t0.293 0.707-0.297 0.711l-6.289 6.289 6.289 6.289q0.297 0.297 0.297 0.711t-0.293 0.707-0.707 0.293q-0.422 0-0.711-0.289l-7-7q-0.289-0.289-0.289-0.711t0.289-0.711l7-7q0.289-0.289 0.711-0.289z"></path>
</svg>
<svg id="icon-play" width="24" height="24" viewBox="0 0 24 24" x="320" y="0">
<path fill="#00f" d="M4 21v-18l15 9zM15.109 12l-9.109-5.469v10.938z"></path>
</svg>
<svg id="icon-pause" width="24" height="24" viewBox="0 0 24 24" x="360" y="0">
<path fill="#00f" d="M16 3q1.242 0 2.121 0.879t0.879 2.121v12q0 1.242-0.879 2.121t-2.121 0.879-2.121-0.879-0.879-2.121v-12q0-1.242 0.879-2.121t2.121-0.879zM8 3q1.242 0 2.121 0.879t0.879 2.121v12q0 1.242-0.879 2.121t-2.121 0.879-2.121-0.879-0.879-2.121v-12q0-1.242 0.879-2.121t2.121-0.879zM8 5q-0.414 0-0.707 0.293t-0.293 0.707v12q0 0.414 0.293 0.707t0.707 0.293 0.707-0.293 0.293-0.707v-12q0-0.414-0.293-0.707t-0.707-0.293zM16 5q-0.414 0-0.707 0.293t-0.293 0.707v12q0 0.414 0.293 0.707t0.707 0.293 0.707-0.293 0.293-0.707v-12q0-0.414-0.293-0.707t-0.707-0.293z"></path>
</svg>
<svg id="icon-stop" width="24" height="24" viewBox="0 0 24 24" x="400" y="0">
<path fill="#00f" d="M6 3h12q1.242 0 2.121 0.879t0.879 2.121v12q0 1.242-0.879 2.121t-2.121 0.879h-12q-1.242 0-2.121-0.879t-0.879-2.121v-12q0-1.242 0.879-2.121t2.121-0.879zM18 5h-12q-0.414 0-0.707 0.293t-0.293 0.707v12q0 0.414 0.293 0.707t0.707 0.293h12q0.414 0 0.707-0.293t0.293-0.707v-12q0-0.414-0.293-0.707t-0.707-0.293z"></path>
</svg>
<svg id="icon-fast-forward" width="24" height="24" viewBox="0 0 24 24" x="440" y="0">
<path fill="#00f" d="M11 4q0.414 0 0.703 0.289l7 7q0.297 0.297 0.297 0.711t-0.297 0.711l-7 7q-0.289 0.289-0.703 0.289t-0.707-0.293-0.293-0.707q0-0.422 0.289-0.711l6.289-6.289-6.289-6.289q-0.289-0.289-0.289-0.711 0-0.43 0.285-0.715t0.715-0.285zM5 4q0.414 0 0.703 0.289l7 7q0.297 0.297 0.297 0.711t-0.297 0.711l-7 7q-0.289 0.289-0.703 0.289t-0.707-0.293-0.293-0.707q0-0.422 0.289-0.711l6.289-6.289-6.289-6.289q-0.289-0.289-0.289-0.711 0-0.43 0.285-0.715t0.715-0.285z"></path>
</svg>
<svg id="icon-skip-forward" width="24" height="24" viewBox="0 0 24 24" x="480" y="0">
<path fill="#00f" d="M6 4q0.414 0 0.711 0.297l7 7q0.289 0.289 0.289 0.703 0 0.422-0.289 0.711l-7 7q-0.289 0.289-0.711 0.289-0.414 0-0.707-0.289t-0.293-0.703q0-0.406 0.289-0.711l6.297-6.297-6.297-6.289q-0.289-0.305-0.289-0.711 0-0.414 0.293-0.707t0.707-0.293zM17 4q0.414 0 0.707 0.293t0.293 0.707v14q0 0.414-0.293 0.707t-0.707 0.293-0.707-0.293-0.293-0.707v-14q0-0.414 0.293-0.707t0.707-0.293z"></path>
</svg>
<svg id="icon-repeat" width="24" height="24" viewBox="0 0 24 24" x="520" y="0">
<path fill="#00f" d="M1 13h6q0.414 0 0.707 0.293t0.293 0.707-0.293 0.707-0.707 0.293h-3.375l2.719 2.656q1.156 1.164 2.648 1.758 1.43 0.586 3.008 0.586t3.008-0.586q0.781-0.32 1.465-0.785t1.164-0.953 0.875-1.047 0.633-1.027 0.402-0.938q0.141-0.391 0.516-0.566t0.758-0.043q0.391 0.141 0.566 0.512t0.043 0.754q-0.328 1-0.953 1.984t-1.406 1.766q-1.437 1.437-3.305 2.195-1.812 0.734-3.766 0.734-1.945 0-3.766-0.734-1.867-0.758-3.305-2.195l-2.93-2.867v3.797q0 0.414-0.293 0.707t-0.707 0.293-0.707-0.293-0.293-0.707v-6q0-0.414 0.293-0.707t0.707-0.293zM12 2q1.945 0 3.766 0.734 1.867 0.758 3.305 2.195l0.016 0.016 2.914 2.852v-3.797q0-0.414 0.293-0.707t0.707-0.293 0.707 0.293 0.293 0.707v6q0 0.414-0.293 0.707t-0.707 0.293h-6q-0.414 0-0.707-0.293t-0.293-0.707 0.293-0.707 0.707-0.293h3.375l-2.719-2.656q-1.141-1.141-2.598-1.742t-3.059-0.602q-1.578 0-3.008 0.586-1.492 0.594-2.648 1.758-0.469 0.414-1.027 1.262t-0.863 1.73q-0.141 0.391-0.516 0.566t-0.758 0.043q-0.391-0.141-0.566-0.512t-0.043-0.754q0.328-1 0.953-1.984t1.406-1.766q1.437-1.437 3.305-2.195 1.82-0.734 3.766-0.734z"></path>
</svg>
<svg id="icon-head" width="24" height="24" viewBox="0 0 24 24" x="560" y="0">
<path fill="#00f" d="M12 0q1.633 0 3.012 0.805t2.184 2.184 0.805 3.012v3q0 1.25-0.484 2.367t-1.352 1.945q2.281 0.359 4.055 1.059t2.777 1.652 1.004 2.008v1.969q0 1.242-0.879 2.121t-2.121 0.879h-18q-1.242 0-2.121-0.879t-0.879-2.121v-1.977q0-1.055 1.004-2.008t2.773-1.652 4.051-1.051q-0.859-0.836-1.344-1.949t-0.484-2.363v-3q0-1.633 0.805-3.012t2.184-2.184 3.012-0.805zM12 15q-2.172 0-4.191 0.348t-3.52 0.973q-0.602 0.25-1.074 0.531t-0.719 0.508-0.371 0.395-0.125 0.27v1.977q0 0.414 0.293 0.707t0.707 0.293h18q0.414 0 0.707-0.293t0.293-0.707v-1.969q0-0.102-0.125-0.27t-0.371-0.395-0.719-0.508-1.074-0.539q-1.5-0.625-3.52-0.973t-4.191-0.348zM12 2q-1.656 0-2.828 1.172t-1.172 2.828v3q0 1.656 1.172 2.828t2.828 1.172 2.828-1.172 1.172-2.828v-3q0-1.656-1.172-2.828t-2.828-1.172z"></path>
</svg>
<svg id="icon-speech-bubble" width="24" height="24" viewBox="0 0 24 24" x="600" y="0">
<path fill="#00f" d="M4 1h16q1.242 0 2.121 0.879t0.879 2.121v11q0 1.242-0.879 2.121t-2.121 0.879h-8l-7 5v-5h-1q-1.242 0-2.121-0.879t-0.879-2.121v-11q0-1.242 0.879-2.121t2.121-0.879zM20 3h-16q-0.414 0-0.707 0.293t-0.293 0.707v11q0 0.414 0.293 0.707t0.707 0.293h3v3.117l4.359-3.117h8.641q0.414 0 0.707-0.293t0.293-0.707v-11q0-0.414-0.293-0.707t-0.707-0.293z"></path>
</svg>
<svg id="icon-reload" width="24" height="24" viewBox="0 0 24 24" x="0" y="40">
<path fill="#00f" d="M11 2q1.945 0 3.766 0.734 1.867 0.758 3.305 2.195 0.008 0.008 2.93 2.867v-3.797q0-0.414 0.293-0.707t0.707-0.293 0.707 0.293 0.293 0.707v6q0 0.414-0.293 0.707t-0.707 0.293h-6q-0.414 0-0.707-0.293t-0.293-0.707 0.293-0.707 0.707-0.293h3.375q-2.172-2.109-2.719-2.656-1.164-1.164-2.648-1.758-1.43-0.586-3.008-0.586t-3.008 0.586q-1.492 0.594-2.648 1.758-1.156 1.156-1.758 2.648-0.586 1.43-0.586 3.008t0.586 3.008q0.602 1.492 1.758 2.648 1.156 1.164 2.648 1.758 1.43 0.586 3.008 0.586t3.008-0.586q1.484-0.594 2.648-1.758 1.297-1.297 1.891-2.992 0.133-0.391 0.508-0.566t0.766-0.043q0.391 0.141 0.57 0.516t0.039 0.766q-0.359 1.023-0.973 2t-1.387 1.734q-1.437 1.437-3.305 2.195-1.82 0.734-3.766 0.734t-3.766-0.734q-1.867-0.758-3.305-2.195t-2.195-3.305q-0.734-1.82-0.734-3.766t0.734-3.766q0.758-1.867 2.195-3.305t3.305-2.195q1.82-0.734 3.766-0.734z"></path>
</svg>
<svg id="icon-marquee-plus" width="24" height="24" viewBox="0 0 24 24" x="40" y="40">
<path fill="#00f" d="M12 7q0.414 0 0.707 0.293t0.293 0.707v3h3q0.414 0 0.707 0.293t0.293 0.707-0.293 0.707-0.707 0.293h-3v3q0 0.414-0.293 0.707t-0.707 0.293-0.707-0.293-0.293-0.707v-3h-3q-0.414 0-0.707-0.293t-0.293-0.707 0.293-0.707 0.707-0.293h3v-3q0-0.414 0.293-0.707t0.707-0.293zM2 17q0.414 0 0.707 0.293t0.293 0.707v2q0 0.414 0.293 0.707t0.707 0.293h2q0.414 0 0.707 0.293t0.293 0.707-0.293 0.707-0.707 0.293h-2q-1.242 0-2.121-0.879t-0.879-2.121v-2q0-0.414 0.293-0.707t0.707-0.293zM2 9q0.414 0 0.707 0.293t0.293 0.707v4q0 0.414-0.293 0.707t-0.707 0.293-0.707-0.293-0.293-0.707v-4q0-0.414 0.293-0.707t0.707-0.293zM10 21h4q0.414 0 0.707 0.293t0.293 0.707-0.293 0.707-0.707 0.293h-4q-0.414 0-0.707-0.293t-0.293-0.707 0.293-0.707 0.707-0.293zM4 1h2q0.414 0 0.707 0.293t0.293 0.707-0.293 0.707-0.707 0.293h-2q-0.414 0-0.707 0.293t-0.293 0.707v2q0 0.414-0.293 0.707t-0.707 0.293-0.707-0.293-0.293-0.707v-2q0-1.242 0.879-2.121t2.121-0.879zM22 17q0.414 0 0.707 0.293t0.293 0.707v2q0 1.242-0.879 2.121t-2.121 0.879h-2q-0.414 0-0.707-0.293t-0.293-0.707 0.293-0.707 0.707-0.293h2q0.414 0 0.707-0.293t0.293-0.707v-2q0-0.414 0.293-0.707t0.707-0.293zM22 9q0.414 0 0.707 0.293t0.293 0.707v4q0 0.414-0.293 0.707t-0.707 0.293-0.707-0.293-0.293-0.707v-4q0-0.414 0.293-0.707t0.707-0.293zM10 1h4q0.414 0 0.707 0.293t0.293 0.707-0.293 0.707-0.707 0.293h-4q-0.414 0-0.707-0.293t-0.293-0.707 0.293-0.707 0.707-0.293zM18 1h2q1.242 0 2.121 0.879t0.879 2.121v2q0 0.414-0.293 0.707t-0.707 0.293-0.707-0.293-0.293-0.707v-2q0-0.414-0.293-0.707t-0.707-0.293h-2q-0.414 0-0.707-0.293t-0.293-0.707 0.293-0.707 0.707-0.293z"></path>
</svg>
<svg id="icon-volume" width="24" height="24" viewBox="0 0 24 24" x="80" y="40">
<path fill="#00f" d="M5 8l5-5v18l-5-5h-2q-1.242 0-2.121-0.879t-0.879-2.121v-1.961q0-1.242 0.879-2.141t2.121-0.898h2zM8 16.172v-8.383l-2.172 2.211h-2.828q-0.406 0-0.703 0.309t-0.297 0.73v1.961q0 0.414 0.293 0.707t0.707 0.293h2.828zM14.531 8.664q0.289 0 0.543 0.164t0.379 0.445q0.547 1.32 0.547 2.727 0 1.43-0.547 2.711-0.117 0.281-0.371 0.449t-0.551 0.168q-0.367 0-0.684-0.277t-0.316-0.723q0-0.18 0.078-0.391 0.391-0.922 0.391-1.938 0-1.008-0.391-1.945-0.078-0.18-0.078-0.391 0-0.445 0.301-0.723t0.699-0.277zM17.586 5.875q0.563 0 0.859 0.492 0.773 1.289 1.148 2.664 0.406 1.469 0.406 2.969 0 1.492-0.406 2.977-0.383 1.391-1.148 2.664-0.289 0.484-0.859 0.484-0.391 0-0.695-0.281t-0.305-0.719q0-0.273 0.148-0.516 0.609-1.016 0.93-2.172 0.336-1.172 0.336-2.438 0-1.258-0.336-2.43-0.32-1.156-0.93-2.18-0.148-0.227-0.148-0.508 0-0.422 0.309-0.715t0.691-0.293zM20.578 3.133q0.539 0 0.828 0.438 1.273 1.867 1.934 4.016t0.66 4.414-0.66 4.414-1.934 4.016q-0.281 0.438-0.828 0.438-0.406 0-0.699-0.281t-0.293-0.719q0-0.312 0.172-0.563 2.242-3.289 2.242-7.305 0-1.969-0.57-3.828t-1.672-3.477q-0.172-0.25-0.172-0.563 0-0.438 0.293-0.719t0.699-0.281z"></path>
</svg>
<svg id="icon-mute" width="24" height="24" viewBox="0 0 24 24" x="120" y="40">
<path fill="#00f" d="M6 8l5-5v18l-5-5h-2q-1.242 0-2.121-0.879t-0.879-2.121v-1.961q0-1.242 0.879-2.141t2.121-0.898h2zM9 16.172v-8.383l-2.172 2.211h-2.828q-0.406 0-0.703 0.309t-0.297 0.73v1.961q0 0.414 0.293 0.707t0.707 0.293h2.828zM21 8q0.43 0 0.715 0.285t0.285 0.715q0 0.422-0.289 0.711l-2.297 2.289 2.297 2.289q0.289 0.289 0.289 0.711 0 0.43-0.285 0.715t-0.715 0.285q-0.422 0-0.711-0.289l-2.289-2.297-2.289 2.297q-0.289 0.289-0.711 0.289-0.43 0-0.715-0.285t-0.285-0.715q0-0.422 0.289-0.711l2.297-2.289-2.297-2.289q-0.289-0.289-0.289-0.711 0-0.43 0.285-0.715t0.715-0.285q0.422 0 0.711 0.289l2.289 2.297 2.289-2.297q0.289-0.289 0.711-0.289z"></path>
</svg>
<svg id="icon-expand" width="24" height="24" viewBox="0 0 24 24" x="160" y="40">
<path fill="#00f" d="M17 1h3q1.242 0 2.121 0.879t0.879 2.121v3q0 0.414-0.293 0.707t-0.707 0.293-0.707-0.293-0.293-0.707v-3q0-0.414-0.293-0.707t-0.707-0.293h-3q-0.414 0-0.707-0.293t-0.293-0.707 0.293-0.707 0.707-0.293zM2 16q0.414 0 0.707 0.293t0.293 0.707v3q0 0.414 0.293 0.707t0.707 0.293h3q0.414 0 0.707 0.293t0.293 0.707-0.293 0.707-0.707 0.293h-3q-1.242 0-2.121-0.879t-0.879-2.121v-3q0-0.414 0.293-0.707t0.707-0.293zM4 1h3q0.414 0 0.707 0.293t0.293 0.707-0.293 0.707-0.707 0.293h-3q-0.414 0-0.707 0.293t-0.293 0.707v3q0 0.414-0.293 0.707t-0.707 0.293-0.707-0.293-0.293-0.707v-3q0-1.242 0.879-2.121t2.121-0.879zM22 16q0.414 0 0.707 0.293t0.293 0.707v3q0 1.242-0.879 2.121t-2.121 0.879h-3q-0.414 0-0.707-0.293t-0.293-0.707 0.293-0.707 0.707-0.293h3q0.414 0 0.707-0.293t0.293-0.707v-3q0-0.414 0.293-0.707t0.707-0.293z"></path>
</svg>
<svg id="icon-contract" width="24" height="24" viewBox="0 0 24 24" x="200" y="40">
<path fill="#00f" d="M17 1q0.414 0 0.707 0.293t0.293 0.707v3q0 0.414 0.293 0.707t0.707 0.293h3q0.414 0 0.707 0.293t0.293 0.707-0.293 0.707-0.707 0.293h-3q-1.242 0-2.121-0.879t-0.879-2.121v-3q0-0.414 0.293-0.707t0.707-0.293zM2 16h3q1.242 0 2.121 0.879t0.879 2.121v3q0 0.414-0.293 0.707t-0.707 0.293-0.707-0.293-0.293-0.707v-3q0-0.414-0.293-0.707t-0.707-0.293h-3q-0.414 0-0.707-0.293t-0.293-0.707 0.293-0.707 0.707-0.293zM7 1q0.414 0 0.707 0.293t0.293 0.707v3q0 1.242-0.879 2.121t-2.121 0.879h-3q-0.414 0-0.707-0.293t-0.293-0.707 0.293-0.707 0.707-0.293h3q0.414 0 0.707-0.293t0.293-0.707v-3q0-0.414 0.293-0.707t0.707-0.293zM19 16h3q0.414 0 0.707 0.293t0.293 0.707-0.293 0.707-0.707 0.293h-3q-0.414 0-0.707 0.293t-0.293 0.707v3q0 0.414-0.293 0.707t-0.707 0.293-0.707-0.293-0.293-0.707v-3q0-1.242 0.879-2.121t2.121-0.879z"></path>
</svg>
<svg id="icon-check" width="24" height="24" viewBox="0 0 24 24" x="240" y="40">
<path fill="#00f" d="M21 5q0.43 0 0.715 0.285t0.285 0.715q0 0.422-0.289 0.711l-12 12q-0.289 0.289-0.711 0.289t-0.711-0.289l-6-6q-0.289-0.289-0.289-0.711 0-0.43 0.285-0.715t0.715-0.285q0.422 0 0.711 0.289l5.289 5.297 11.289-11.297q0.289-0.289 0.711-0.289z"></path>
</svg>
<svg id="icon-cross" width="24" height="24" viewBox="0 0 24 24" x="280" y="40">
<path fill="#00f" d="M19 4q0.43 0 0.715 0.285t0.285 0.715q0 0.422-0.289 0.711l-6.297 6.289 6.297 6.289q0.289 0.289 0.289 0.711 0 0.43-0.285 0.715t-0.715 0.285q-0.422 0-0.711-0.289l-6.289-6.297-6.289 6.297q-0.289 0.289-0.711 0.289-0.43 0-0.715-0.285t-0.285-0.715q0-0.422 0.289-0.711l6.297-6.289-6.297-6.289q-0.289-0.289-0.289-0.711 0-0.43 0.285-0.715t0.715-0.285q0.422 0 0.711 0.289l6.289 6.297 6.289-6.297q0.289-0.289 0.711-0.289z"></path>
</svg>
<svg id="icon-expand2" width="16" height="16" viewBox="0 0 16 16" x="0" y="80">
<path fill="#00f" d="M5.574 8.994l-3.29 3.29-1.284-1.284c-0.553 0-1 0.447-1 1v3c0 0.553 0.447 1 1 1h3c0.553 0 1-0.447 1-1l-1.284-1.283 3.29-3.291-1.432-1.432zM15 0h-3c-0.553 0-1 0.448-1 1l1.284 1.284-3.29 3.29 1.432 1.432 3.29-3.29 1.284 1.284c0.553 0 1-0.447 1-1v-3c0-0.552-0.447-1-1-1zM15 11l-1.284 1.284-3.29-3.29-1.432 1.432 3.29 3.291-1.284 1.283c0 0.553 0.447 1 1 1h3c0.553 0 1-0.447 1-1v-3c0-0.553-0.447-1-1-1zM5 1c0-0.552-0.447-1-1-1h-3c-0.553 0-1 0.448-1 1v3c0 0.553 0.447 1 1 1l1.284-1.284 3.29 3.29 1.432-1.432-3.29-3.29 1.284-1.284z"></path>
</svg>
</svg>
